<svg xmlns="http://www.w3.org/2000/svg"><style>:root svg:not(:target){display:none}</style><svg viewBox="0 0 25 24" fill="none" id="arrow-right"><path d="M5.5 12H19.5" stroke="white" stroke-width="2" stroke-linecap="round" stroke-linejoin="round"></path><path d="M12.5 5L19.5 12L12.5 19" stroke="white" stroke-width="2" stroke-linecap="round" stroke-linejoin="round"></path></svg><svg viewBox="0 0 28 28" fill="none" id="burger"><path d="M3.5 14H24.5" stroke="#323232" stroke-width="2" stroke-linecap="round" stroke-linejoin="round"></path><path d="M3.5 7H24.5" stroke="#323232" stroke-width="2" stroke-linecap="round" stroke-linejoin="round"></path><path d="M3.5 21H24.5" stroke="#323232" stroke-width="2" stroke-linecap="round" stroke-linejoin="round"></path></svg><svg viewBox="0 0 81 81" fill="none" id="electric-car"><g clip-path="url(#electric-car_0)"><path d="M76.1263 33.9L71.4362 30.1475C71.4175 30.1325 71.3988 30.1138 71.38 30.0988L75.7462 29.225C76.33 29.1087 76.75 28.5962 76.75 28V24.25C76.75 23.56 76.19 23 75.5 23H69.25C68.56 23 68 23.56 68 24.25V26.44C67.9713 26.4013 67.9425 26.3625 67.9137 26.3238C67.835 26.1063 67.695 25.9287 67.5175 25.7875C66.8138 24.7912 66.2113 23.7937 65.8187 22.9312L63.7062 18.285C62.36 15.3212 58.755 13 55.5 13H25.5C22.245 13 18.64 15.3212 17.2938 18.285L15.1825 22.93C14.79 23.7925 14.1875 24.7912 13.4838 25.7875C13.3063 25.9287 13.1675 26.1063 13.0875 26.3238C13.0587 26.3625 13.0313 26.4 13.0013 26.44V24.25C13.0013 23.56 12.4413 23 11.7513 23H5.5C4.81 23 4.25 23.56 4.25 24.25V28C4.25 28.5962 4.67 29.1087 5.255 29.225L9.62125 30.0988C9.6025 30.1138 9.58375 30.1325 9.565 30.1475L4.87375 33.9C2.42125 35.8625 0.5 39.86 0.5 43V64.25C0.5 66.3175 2.1825 68 4.25 68H14.25C16.3175 68 18 66.3175 18 64.25V61.75H63V64.25C63 66.3175 64.6825 68 66.75 68H76.75C78.8175 68 80.5 66.3175 80.5 64.25V43C80.5 39.86 78.5788 35.8625 76.1263 33.9ZM64.7675 59.25L61.9012 56.3838C60.685 55.1675 58.47 54.25 56.75 54.25H23.625C21.905 54.25 19.69 55.1675 18.4737 56.3838L15.6075 59.25H6.75C4.6825 59.25 3 57.5675 3 55.5V49.25H4.25V50.5C4.25 53.2575 6.4925 55.5 9.25 55.5H13C13.69 55.5 14.25 54.94 14.25 54.25C14.25 53.56 13.69 53 13 53H9.25C7.87125 53 6.75 51.8787 6.75 50.5V49.25H9.25C10.2875 49.25 11.9 49.9175 12.6337 50.6512C12.8775 50.895 13.1975 51.0175 13.5175 51.0175C13.8375 51.0175 14.1575 50.895 14.4013 50.6512C14.89 50.1625 14.89 49.3725 14.4013 48.8838C13.185 47.6675 10.9712 46.75 9.25 46.75H3V43C3 42.5588 3.07 42.0825 3.16875 41.5962C3.96875 42.4312 5.1325 43 6.75 43H16.75C17.0812 43 17.3988 42.8688 17.6337 42.6338L19.25 41.0175L20.8662 42.6338C21.1 42.8688 21.4188 43 21.75 43H36.2325L39.6162 46.3838C39.86 46.6275 40.18 46.75 40.5 46.75C40.82 46.75 41.14 46.6275 41.3838 46.3838L44.7675 43H59.25C59.5812 43 59.9 42.8688 60.1338 42.6338L61.75 41.0175L63.3662 42.6338C63.6 42.8688 63.9188 43 64.25 43H74.25C75.8675 43 77.0312 42.4312 77.8313 41.5962C77.93 42.0825 78 42.5588 78 43V46.75H71.75C70.03 46.75 67.815 47.6675 66.5988 48.8838C66.11 49.3725 66.11 50.1625 66.5988 50.6512C66.8425 50.895 67.1625 51.0175 67.4825 51.0175C67.8025 51.0175 68.1225 50.895 68.3662 50.6512C69.1 49.9175 70.7125 49.25 71.75 49.25H74.25V50.5C74.25 51.8787 73.1288 53 71.75 53H68C67.31 53 66.75 53.56 66.75 54.25C66.75 54.94 67.31 55.5 68 55.5H71.75C74.5075 55.5 76.75 53.2575 76.75 50.5V49.25H78V55.5C78 57.5675 76.3175 59.25 74.25 59.25H64.7675ZM61.2325 59.25H19.1425L20.2413 58.1512C20.975 57.4175 22.5875 56.75 23.625 56.75H56.75C57.7875 56.75 59.4 57.4175 60.1338 58.1512L61.2325 59.25ZM14.95 28H66.05C67.2612 29.6012 68.645 31.1163 69.8737 32.1L71.3775 33.3025L62.5363 36.8387C62.535 36.8387 62.535 36.84 62.5337 36.84C62.3825 36.9013 62.24 36.9925 62.1175 37.115L60.8675 38.365L58.7325 40.5H44.25C43.9188 40.5 43.6 40.6312 43.3662 40.8662L40.5 43.7325L37.6338 40.8662C37.4 40.6312 37.0812 40.5 36.75 40.5H22.2675L20.1337 38.3662L18.8837 37.1162C18.7612 36.9937 18.6187 36.9025 18.4675 36.8412C18.4662 36.8412 18.4662 36.84 18.465 36.84L9.62375 33.3037L11.1275 32.1012C12.355 31.1163 13.7388 29.6012 14.95 28ZM76.6763 38.5238C76.425 39.83 75.615 40.5 74.25 40.5H64.7675L63.5175 39.25L63.7025 39.065L73.6213 35.0975L74.5638 35.8525C75.3562 36.4862 76.0875 37.45 76.6763 38.5238ZM70.5 25.5H74.25V26.975L70.5 27.725V25.5ZM17.4562 23.965L19.5675 19.32C20.51 17.2487 23.2262 15.5 25.5 15.5H55.5C57.7738 15.5 60.49 17.2488 61.4312 19.3188L63.5438 23.965C63.7638 24.4475 64.05 24.9688 64.3638 25.5H16.6362C16.95 24.9688 17.2375 24.4475 17.4562 23.965ZM6.75 25.5H10.5V27.725L6.75 26.975V25.5ZM6.435 35.8525L7.3775 35.0975L17.2975 39.065L17.4825 39.25L16.2325 40.5H6.75C5.385 40.5 4.575 39.83 4.32375 38.5238C4.9125 37.45 5.6425 36.4862 6.435 35.8525ZM14.25 65.5H4.25C3.56125 65.5 3 64.9388 3 64.25V60.4688C4.0475 61.2612 5.3375 61.75 6.75 61.75H15.5V64.25C15.5 64.9388 14.9388 65.5 14.25 65.5ZM76.75 65.5H66.75C66.0612 65.5 65.5 64.9388 65.5 64.25V61.75H74.25C75.6625 61.75 76.9525 61.2612 78 60.4688V64.25C78 64.9388 77.4388 65.5 76.75 65.5Z" fill="#007FA7"></path></g><defs><clipPath id="electric-car_0"><rect width="80" height="80" fill="white" transform="translate(0.5 0.5)"></rect></clipPath></defs></svg><svg viewBox="0 0 80 81" fill="none" id="filter"><g clip-path="url(#filter_0)"><path d="M76.029 38.5358L73.6068 37.2231C73.4226 37.1233 73.3224 36.9136 73.3574 36.7014C73.5212 35.7098 73.6043 34.6947 73.6043 33.6844C73.6043 32.6739 73.5212 31.6589 73.3574 30.6675C73.3223 30.4551 73.4226 30.2455 73.6068 30.1456L76.029 28.8331C76.6955 28.472 77.1815 27.873 77.3973 27.1462C77.6132 26.4197 77.5332 25.6523 77.1721 24.9861L74.4805 20.0192C73.7349 18.6436 72.0091 18.1309 70.6335 18.8764L68.2088 20.1903C68.0248 20.2903 67.7962 20.2611 67.6405 20.1183C65.7654 18.3972 63.6002 17.1053 61.2049 16.2783C60.9954 16.2059 60.8546 16.0159 60.8546 15.8056V13.0533C60.8546 11.4884 59.5815 10.2155 58.0168 10.2155H52.3677C50.803 10.2155 49.5299 11.4884 49.5299 13.0533V15.8056C49.5299 16.0159 49.3891 16.2059 49.1798 16.2783C46.7843 17.1053 44.619 18.3973 42.7441 20.1183C42.5883 20.2612 42.3599 20.2901 42.1757 20.1903L39.751 18.8762C38.3752 18.1308 36.6496 18.6437 35.904 20.0194L33.2126 24.9861C32.8515 25.6525 32.7715 26.4197 32.9874 27.1462C33.0754 27.4425 33.2104 27.7159 33.3819 27.9622H18.4663C17.819 27.9622 17.2941 28.4869 17.2941 29.1344C17.2941 29.7817 17.819 30.3065 18.4663 30.3065H55.5976C55.6657 30.3065 55.7212 30.362 55.7212 30.4301V37.0625H4.82835V30.4303C4.82835 30.362 4.88382 30.3067 4.95194 30.3067H13.1526C13.7999 30.3067 14.3248 29.782 14.3248 29.1345C14.3248 28.4872 13.7999 27.9623 13.1526 27.9623H4.95194C3.59116 27.9623 2.48413 29.0694 2.48413 30.4301V38.2345C2.48413 38.2428 2.48522 38.2508 2.48538 38.2589C2.48569 38.2722 2.48663 38.2851 2.48741 38.2984C2.4896 38.3401 2.49397 38.3814 2.50054 38.4219C2.5021 38.4315 2.50319 38.4412 2.50491 38.4508C2.51444 38.5015 2.52694 38.5511 2.54272 38.5992C2.54476 38.6056 2.54741 38.6119 2.5496 38.6181C2.56476 38.6617 2.58241 38.704 2.60241 38.745C2.60647 38.7536 2.61038 38.7622 2.61476 38.7706C2.63819 38.8161 2.66413 38.8598 2.69319 38.9017C2.69788 38.9084 2.70319 38.9148 2.70804 38.9215C2.73476 38.9584 2.76366 38.9936 2.79444 39.027C2.79897 39.032 2.80241 39.0376 2.8071 39.0425L23.8948 61.2001C24.1133 61.4298 24.2337 61.7309 24.2337 62.0478V73.9231C24.2337 74.6383 24.6204 75.3012 25.2426 75.6531L33.3485 80.239C33.6558 80.413 33.9919 80.4998 34.3277 80.4997C34.6721 80.4997 35.0162 80.4084 35.3288 80.2262C35.9465 79.8661 36.3152 79.2242 36.3152 78.509V72.7973C36.3152 72.15 35.7904 71.6251 35.143 71.6251C34.4957 71.6251 33.9708 72.1498 33.9708 72.7973V77.8978L26.5777 73.7151V62.0478C26.5777 61.1265 26.2279 60.2515 25.5926 59.584L6.38976 39.4067H54.1594L51.7933 41.893C51.791 41.8955 51.7887 41.898 51.7863 41.9005L34.9562 59.5845C34.321 60.2519 33.9712 61.1269 33.9712 62.0481V67.3278C33.9712 67.9751 34.496 68.5 35.1434 68.5C35.7907 68.5 36.3155 67.9753 36.3155 67.3278V62.0481C36.3155 61.7311 36.4358 61.4301 36.6544 61.2006L47.1008 50.224C47.7762 50.5547 48.4716 50.8464 49.1796 51.0908C49.3891 51.1631 49.5299 51.3531 49.5299 51.5634V54.3158C49.5299 55.8806 50.803 57.1536 52.3677 57.1536H58.0168C59.5815 57.1536 60.8546 55.8806 60.8546 54.3158V51.5634C60.8546 51.3531 60.9954 51.1631 61.2049 51.0908C63.6005 50.2636 65.7658 48.9717 67.6405 47.2508C67.7965 47.108 68.0247 47.0792 68.209 47.1787L70.6337 48.4928C72.0093 49.2383 73.7351 48.7255 74.4807 47.3497L77.1719 42.3828C77.533 41.7164 77.613 40.9492 77.3971 40.2226C77.1813 39.4958 76.6954 38.8969 76.029 38.5358ZM75.1108 41.2659L72.4194 46.2325C72.2898 46.4719 71.9898 46.5611 71.7502 46.4315L69.3259 45.1176C68.2624 44.5414 66.948 44.7042 66.0552 45.5236C64.4188 47.0258 62.5294 48.1534 60.4398 48.875C59.2857 49.2734 58.5104 50.3539 58.5104 51.5634V54.3158C58.5104 54.588 58.289 54.8094 58.0168 54.8094H52.3677C52.0955 54.8094 51.8741 54.588 51.8741 54.3158V51.5634C51.8741 50.3539 51.0988 49.2736 49.9446 48.8748C49.5608 48.7423 49.1819 48.5922 48.808 48.4301L53.0107 44.0142C53.7249 44.1644 54.4558 44.2401 55.1923 44.2401C57.0593 44.2401 58.8946 43.7458 60.4998 42.8108C61.059 42.485 61.2484 41.7673 60.9224 41.208C60.5965 40.6486 59.879 40.4598 59.3194 40.7851C58.0723 41.5117 56.6452 41.8959 55.1923 41.8959C55.1379 41.8959 55.0837 41.8942 55.0293 41.8931L57.7421 39.0426C57.7468 39.0378 57.7502 39.0322 57.7548 39.0272C57.7855 38.9937 57.8144 38.9586 57.8412 38.9217C57.846 38.915 57.8513 38.9086 57.856 38.9019C57.8851 38.8601 57.911 38.8162 57.9344 38.7708C57.9388 38.7623 57.9426 38.7537 57.9468 38.7451C57.9668 38.704 57.9844 38.6619 57.9996 38.6183C58.0018 38.6119 58.0044 38.6058 58.0065 38.5994C58.0223 38.5512 58.0349 38.5017 58.0443 38.4509C58.0462 38.4414 58.0471 38.4317 58.0487 38.422C58.0552 38.3815 58.0596 38.3403 58.0618 38.2986C58.0626 38.2855 58.0635 38.2723 58.0638 38.259C58.064 38.2508 58.0651 38.2428 58.0651 38.2347V30.4303C58.0651 29.0695 56.958 27.9625 55.5973 27.9625H49.3033C50.8304 26.3933 52.9462 25.4733 55.1921 25.4733C59.7199 25.4733 63.4037 29.1569 63.4037 33.6847C63.4037 34.9747 63.1135 36.2087 62.5412 37.3528C62.2516 37.9317 62.486 38.6359 63.0649 38.9255C63.2333 39.0097 63.4123 39.0497 63.5885 39.0497C64.0183 39.0495 64.4323 38.8122 64.6377 38.4017C65.3744 36.9292 65.7479 35.3423 65.7479 33.6848C65.7479 27.8644 61.0126 23.1292 55.1921 23.1292C51.5949 23.1292 48.2573 24.9645 46.3207 27.9626H37.6684L35.4721 26.7723C35.3157 26.6876 35.256 26.5522 35.2343 26.4792C35.2126 26.4059 35.1887 26.2598 35.2735 26.1034L37.9649 21.1369C38.0946 20.8975 38.3949 20.8084 38.6341 20.9378L41.0585 22.2517C42.1221 22.8281 43.4365 22.6653 44.3291 21.8458C45.9657 20.3436 47.8551 19.2159 49.9448 18.4944C51.0988 18.0961 51.8741 17.0155 51.8741 15.8059V13.0533C51.8741 12.7811 52.0955 12.5597 52.3677 12.5597H58.0168C58.289 12.5597 58.5104 12.7811 58.5104 13.0533V15.8056C58.5104 17.0151 59.2857 18.0955 60.4398 18.494C62.5293 19.2156 64.4187 20.3433 66.0554 21.8455C66.9479 22.6648 68.2623 22.8278 69.3259 22.2514L71.7504 20.9376C71.9898 20.8078 72.2899 20.897 72.4196 21.1364L75.111 26.1031C75.1958 26.2595 75.1719 26.4056 75.1502 26.4789C75.1285 26.552 75.0687 26.6873 74.9123 26.7722L72.4899 28.0848C71.4276 28.6605 70.8468 29.852 71.0446 31.0498C71.1876 31.9153 71.2601 32.8017 71.2601 33.6845C71.2601 34.5673 71.1876 35.4537 71.0444 36.3194C70.8466 37.517 71.4274 38.7084 72.4898 39.2842L74.9121 40.597C75.0685 40.6817 75.1282 40.8172 75.1499 40.8901C75.1718 40.9634 75.1957 41.1095 75.1108 41.2659Z" fill="#323232"></path><path d="M3.65607 12.3635C4.30342 12.3635 4.82826 11.8388 4.82826 11.1913V6.00971C4.82826 5.36237 4.30342 4.83752 3.65607 4.83752C3.00873 4.83752 2.48389 5.36221 2.48389 6.00971V11.1913C2.48404 11.8388 3.00873 12.3635 3.65607 12.3635Z" fill="#323232"></path><path d="M23.2777 24.6808C23.925 24.6808 24.4498 24.1561 24.4498 23.5086V18.3269C24.4498 17.6795 23.925 17.1547 23.2777 17.1547C22.6303 17.1547 22.1055 17.6794 22.1055 18.3269V23.5086C22.1055 24.1561 22.6303 24.6808 23.2777 24.6808Z" fill="#323232"></path><path d="M18.286 8.02578C18.9333 8.02578 19.4581 7.50109 19.4581 6.85359V1.67219C19.4581 1.02484 18.9333 0.5 18.286 0.5C17.6386 0.5 17.1138 1.02469 17.1138 1.67219V6.85375C17.1138 7.50109 17.6386 8.02578 18.286 8.02578Z" fill="#323232"></path><path d="M42.1351 10.6168C42.7824 10.6168 43.3073 10.0921 43.3073 9.44457V4.26301C43.3073 3.61566 42.7824 3.09082 42.1351 3.09082C41.4877 3.09082 40.9629 3.61551 40.9629 4.26301V9.44457C40.963 10.0921 41.4877 10.6168 42.1351 10.6168Z" fill="#323232"></path><path d="M12.9051 19.1393C15.104 19.1393 16.8929 17.3503 16.8929 15.1516C16.8929 12.9528 15.104 11.1639 12.9051 11.1639C10.7064 11.1639 8.91748 12.9528 8.91748 15.1516C8.91748 17.3503 10.7064 19.1393 12.9051 19.1393ZM12.9051 13.5082C13.8114 13.5082 14.5486 14.2453 14.5486 15.1516C14.5486 16.0578 13.8114 16.795 12.9051 16.795C11.9989 16.795 11.2617 16.0578 11.2617 15.1516C11.2617 14.2453 11.999 13.5082 12.9051 13.5082Z" fill="#323232"></path><path d="M30.9497 16.0798C33.1485 16.0798 34.9374 14.2909 34.9374 12.0922C34.9374 9.89328 33.1485 8.10437 30.9497 8.10437C28.7508 8.10437 26.9619 9.89328 26.9619 12.0922C26.9621 14.2909 28.751 16.0798 30.9497 16.0798ZM30.9497 10.4486C31.856 10.4486 32.5932 11.1859 32.5932 12.0922C32.5932 12.9984 31.856 13.7356 30.9497 13.7356C30.0435 13.7356 29.3063 12.9984 29.3063 12.0922C29.3063 11.1859 30.0435 10.4486 30.9497 10.4486Z" fill="#323232"></path></g><defs><clipPath id="filter_0"><rect width="80" height="80" fill="white" transform="translate(0 0.5)"></rect></clipPath></defs></svg><svg viewBox="0 0 81 81" fill="none" id="herb"><g clip-path="url(#herb_0)"><path d="M74.2549 50.7261C74.1157 50.43 73.8595 50.2056 73.5476 50.107C73.0168 49.9392 60.453 46.0439 52.048 49.9931C46.9167 52.4042 44.8214 59.223 45.4356 62.8828C44.0852 63.8303 42.9305 64.7116 41.9986 65.4591C42.4247 63.3792 42.8309 61.1061 43.1847 58.6597C43.8345 54.1665 44.221 49.6554 44.3461 45.1717C44.452 44.6668 45.247 41.3137 48.1572 38.182C48.9144 38.8189 49.9222 39.3928 51.0433 39.7971C52.151 40.1967 53.2563 40.3961 54.3116 40.3961C55.426 40.3961 56.4844 40.1736 57.4302 39.7292C63.2002 37.0179 66.6219 28.7327 66.7649 28.3813C66.888 28.0784 66.8788 27.7377 66.7399 27.4417C66.6007 27.1456 66.3444 26.9212 66.0326 26.8226C65.671 26.7084 57.1083 24.054 51.3388 26.7649C47.4235 28.6048 46.1283 33.7629 46.778 36.2201C45.7833 37.2285 44.9899 38.2659 44.3588 39.2564C44.3352 38.2806 44.2995 37.3068 44.2505 36.336C43.9906 31.1963 43.3708 26.1266 42.4 21.1699C44.6108 19.7255 47.1802 15.7769 46.1703 11.9262C44.553 5.75973 37.0273 0.888942 36.7078 0.684567C36.432 0.508473 36.0948 0.455347 35.7794 0.538316C35.463 0.621285 35.1956 0.832692 35.042 1.12144C34.8637 1.45629 30.6975 9.39349 32.3148 15.5599C33.3236 19.4059 37.4911 21.5848 40.1269 21.7632C41.015 26.3324 41.5964 31.0009 41.8677 35.7321C40.9599 34.4531 39.9947 33.3159 39.0222 32.3115C39.7792 29.8146 39.0264 24.9176 35.5402 22.7173C30.1489 19.3148 21.3247 20.8923 20.9517 20.961C20.63 21.0204 20.3478 21.2115 20.1732 21.488C19.9987 21.7648 19.9478 22.1016 20.0326 22.4174C20.1311 22.7838 22.5042 31.4281 27.8953 34.8304C29.1617 35.6298 30.5939 35.9503 31.9976 35.9503C34.1764 35.9501 36.2841 35.177 37.5908 34.2228C39.2055 35.9312 40.7825 38.034 42.0394 40.575C42.1003 45.3506 41.8505 50.1776 41.2953 54.9978C40.7247 54.1686 40.035 53.384 39.2288 52.645C39.8045 48.8681 36.4272 41.1061 30.1834 39.2575C26.1251 38.0559 21.0287 38.3057 15.0353 39.9998C10.6299 41.245 7.42259 42.8137 7.28822 42.88C6.99478 43.0245 6.77509 43.285 6.68228 43.5986C6.58931 43.9122 6.63197 44.2503 6.79931 44.5314C6.87603 44.66 8.71228 47.722 11.7298 51.165C15.8348 55.8491 19.9742 58.8331 24.0322 60.0347C25.055 60.3375 26.062 60.4617 27.0272 60.4616C29.8339 60.4614 32.2803 59.4103 33.6866 58.6466C35.5703 57.6234 37.1955 56.2559 38.1906 54.9183C39.395 56.16 40.2967 57.6119 40.7183 59.3062C40.2098 62.6128 39.5881 65.6719 38.9475 68.3669C38.9434 68.3836 38.9392 68.4002 38.9358 68.4169C37.7467 73.4089 36.4952 77.1458 35.7866 78.8847C35.5419 79.4839 35.8292 80.168 36.4284 80.4127C36.5734 80.4719 36.7234 80.5 36.8709 80.5C37.333 80.5 37.7709 80.225 37.9562 79.7708C38.0502 79.541 39.5958 75.7111 41.1524 69.2575C41.8025 68.6675 43.6569 67.0416 46.432 65.0709C48.1664 67.1488 52.2053 69.2145 56.2794 69.2145C57.7669 69.2145 59.2593 68.9389 60.6447 68.288C69.0498 64.3388 74.0705 52.1809 74.2802 51.6653C74.4032 51.3628 74.394 51.0222 74.2549 50.7261ZM52.3353 28.8863C53.9121 28.1456 55.7982 27.8929 57.6385 27.8929C60.165 27.8929 62.6046 28.3693 64.0349 28.7127C62.914 30.9948 60.1747 35.8503 56.4335 37.6081C54.7133 38.4162 52.8164 37.9453 51.8385 37.5925C51.0311 37.3012 50.3714 36.9239 49.8953 36.57C50.3203 36.2299 50.7738 35.8992 51.2635 35.5842C51.8077 35.234 51.965 34.5089 51.6149 33.9646C51.2647 33.4203 50.5394 33.2632 49.9952 33.6132C49.6405 33.8414 49.3022 34.0762 48.9777 34.3159C49.1656 32.5571 50.1858 29.8963 52.3353 28.8863ZM29.2217 28.1187C29.2734 28.1401 32.4334 29.4763 35.8841 32.5629C34.3969 33.4404 31.3147 34.2176 29.1459 32.8489C25.6503 30.6428 23.5311 25.486 22.7003 23.0834C25.227 22.7993 30.7934 22.4934 34.2891 24.6995C36.2456 25.9343 36.9462 28.5929 36.9528 30.3643C33.4487 27.3595 30.3369 26.0434 30.1165 25.9524C29.5184 25.7054 28.8331 25.9901 28.5861 26.5882C28.3389 27.1863 28.6236 27.8717 29.2217 28.1187ZM41.8614 18.6057C41.1884 15.5765 40.3858 12.5921 39.4486 9.66474C39.2511 9.04833 38.5913 8.70849 37.9753 8.90599C37.3589 9.10333 37.0192 9.76302 37.2166 10.3794C38.155 13.3112 38.9561 16.3019 39.6236 19.339C37.9311 18.9357 35.2225 17.4082 34.5819 14.9654C33.5331 10.9671 35.5044 5.75208 36.5373 3.4291C38.5778 4.94614 42.8545 8.52239 43.9031 12.5207C44.51 14.8346 43.0972 17.3427 41.8614 18.6057ZM23.8809 48.4714C27.4576 49.1829 32.6844 50.6253 36.417 53.3814C35.7345 54.3601 34.3772 55.6048 32.5678 56.5875C30.9967 57.4408 27.8853 58.7319 24.6973 57.7878C17.5823 55.6814 11.5393 47.4498 9.52572 44.4406C12.8514 43.0112 22.3925 39.3957 29.518 41.5054C32.7055 42.4492 34.613 45.2259 35.4662 46.797C36.2606 48.2597 36.7131 49.7039 36.8789 50.8344C36.3956 50.5184 35.8858 50.2134 35.3492 49.9193C32.39 48.2981 28.6853 47.0375 24.3379 46.1726C23.7031 46.0462 23.0861 46.4586 22.9601 47.0934C22.8337 47.7283 23.2461 48.3451 23.8809 48.4714ZM59.6479 66.1672C58.5827 66.6678 57.431 66.8755 56.2779 66.8755C52.9707 66.8753 49.6574 65.1653 48.3671 63.7461C52.4486 61.0509 57.9597 58.0336 64.2857 56.1856C64.9069 56.0041 65.2633 55.3534 65.0819 54.7322C64.9005 54.1109 64.2497 53.7545 63.6283 53.9359C57.3004 55.7845 51.8161 58.7011 47.6608 61.3847C47.7275 58.5581 49.3811 53.8361 53.0449 52.1145C55.4783 50.9711 58.3797 50.5823 61.2013 50.5823C65.4765 50.5823 69.5688 51.4754 71.5687 51.9892C70.1084 55.0886 65.7783 63.2867 59.6479 66.1672Z" fill="#323232"></path><path d="M19.2431 45.3976C18.4046 45.3101 17.9112 45.2809 17.8906 45.2797C17.2448 45.2415 16.6904 45.7348 16.6524 46.3808C16.6146 47.0267 17.1074 47.5812 17.7534 47.6193C17.7579 47.6195 18.2202 47.6473 18.9999 47.7286C19.0413 47.7329 19.0823 47.735 19.1229 47.735C19.7156 47.735 20.2243 47.287 20.2871 46.6845C20.3542 46.0411 19.8867 45.4648 19.2431 45.3976Z" fill="#323232"></path><path d="M57.5217 31.7954C57.3549 31.1701 56.7127 30.7984 56.0872 30.9654C55.6024 31.0948 55.1211 31.2393 54.6567 31.3951C54.0431 31.6009 53.7125 32.2651 53.9183 32.8788C54.0827 33.369 54.5394 33.6785 55.0291 33.6785C55.1525 33.6785 55.2783 33.6588 55.4019 33.6174C55.8202 33.4771 56.2541 33.3468 56.6918 33.2299C57.3171 33.063 57.6886 32.4207 57.5217 31.7954Z" fill="#323232"></path></g><defs><clipPath id="herb_0"><rect width="80" height="80" fill="white" transform="translate(0.5 0.5)"></rect></clipPath></defs></svg><svg viewBox="0 0 36 36" fill="none" id="industry"><path d="M15.75 12.375C15.75 11.4446 16.5071 10.6875 17.4375 10.6875H20.8125C21.7429 10.6875 22.5 11.4446 22.5 12.375V12.9375H23.625V12.375C23.625 10.8242 22.3633 9.5625 20.8125 9.5625H17.4375C15.8867 9.5625 14.625 10.8242 14.625 12.375V12.9375H15.75V12.375Z" fill="white"></path><path d="M12.9375 17.4375H17.4375V19.6875H12.9375V17.4375Z" fill="white"></path><path d="M8.4375 15.1875V7.3125H2.8125V15.1875H8.4375ZM4.5 9H6.75V13.5H4.5V9Z" fill="white"></path><path d="M1.6875 1.6875H9.5625V2.8125H1.6875V1.6875Z" fill="white"></path><path d="M9.3449 3.9375H1.90527L2.65565 6.1875H8.59452L9.3449 3.9375Z" fill="white"></path><path d="M12.9375 20.8125H17.4375V23.0625H12.9375V20.8125Z" fill="white"></path><path d="M17.4375 15.1875C17.4375 14.5671 16.9329 14.0625 16.3125 14.0625H14.0625C13.4421 14.0625 12.9375 14.5671 12.9375 15.1875V16.3125H17.4375V15.1875Z" fill="white"></path><path d="M25.3125 15.1875C25.3125 14.5671 24.8079 14.0625 24.1875 14.0625H21.9375C21.3171 14.0625 20.8125 14.5671 20.8125 15.1875V16.3125H25.3125V15.1875Z" fill="white"></path><path d="M33.1538 29.8125L32.0946 11.8125H29.7805L28.8794 27.1299L30.9376 29.0014V29.8125H33.1538Z" fill="white"></path><path d="M20.8125 17.4375H25.3125V19.6875H20.8125V17.4375Z" fill="white"></path><path d="M20.8125 23.0625H24.4052L25.3125 23.8877V20.8125H20.8125V23.0625Z" fill="white"></path><path d="M3.9375 29.8125H17.4375V34.3125H3.9375V29.8125Z" fill="white"></path><path d="M30.9375 30.9375H34.3125V34.3125H30.9375V30.9375Z" fill="white"></path><path d="M9.5625 16.3125H1.6875V34.3125H2.8125V28.9862L9.5625 23.3618V16.3125ZM3.9375 25.3125H2.8125V24.1875H3.9375V25.3125ZM3.9375 23.0625H2.8125V21.9375H3.9375V23.0625ZM3.9375 20.8125H2.8125V19.6875H3.9375V20.8125ZM3.9375 18.5625H2.8125V17.4375H3.9375V18.5625ZM6.1875 25.3125H5.0625V24.1875H6.1875V25.3125ZM6.1875 23.0625H5.0625V21.9375H6.1875V23.0625ZM6.1875 20.8125H5.0625V19.6875H6.1875V20.8125ZM6.1875 18.5625H5.0625V17.4375H6.1875V18.5625ZM8.4375 23.0625H7.3125V21.9375H8.4375V23.0625ZM8.4375 20.8125H7.3125V19.6875H8.4375V20.8125ZM8.4375 18.5625H7.3125V17.4375H8.4375V18.5625Z" fill="white"></path><path d="M21.9375 29.8125H26.4375V34.3125H21.9375V29.8125Z" fill="white"></path><path d="M10.3287 24.1875L4.92871 28.6875H17.7824L22.7324 24.1875H10.3287Z" fill="white"></path><path d="M18.5625 29.4986V34.3125H20.8125V28.6875H27.5625V34.3125H29.8125V29.4986L24.1875 24.3855L18.5625 29.4986Z" fill="white"></path><path d="M33.1875 3.9375H31.5C31.5 2.69662 30.4909 1.6875 29.25 1.6875H28.6875V2.8125H29.25C29.8704 2.8125 30.375 3.31706 30.375 3.9375V5.0625H33.1875C33.8079 5.0625 34.3125 5.56706 34.3125 6.1875C34.3125 6.80794 33.8079 7.3125 33.1875 7.3125C32.2571 7.3125 31.5 8.06962 31.5 9V9.5625H32.625V9C32.625 8.69006 32.8776 8.4375 33.1875 8.4375C34.4284 8.4375 35.4375 7.42838 35.4375 6.1875C35.4375 4.94662 34.4284 3.9375 33.1875 3.9375Z" fill="white"></path><path d="M23.0625 8.4375H28.6875C28.9974 8.4375 29.25 8.69006 29.25 9V9.5625H30.375V9C30.375 8.06962 29.6179 7.3125 28.6875 7.3125H23.0625C22.7526 7.3125 22.5 7.05994 22.5 6.75C22.5 6.44006 22.7526 6.1875 23.0625 6.1875H24.75H25.3125H27V5.0625H25.3125H24.75C24.1296 5.0625 23.625 4.55794 23.625 3.9375C23.625 3.31706 24.1296 2.8125 24.75 2.8125H25.3125V1.6875H24.75C23.5091 1.6875 22.5 2.69662 22.5 3.9375C22.5 4.35881 22.6238 4.74862 22.8263 5.08612C22.0078 5.20256 21.375 5.90063 21.375 6.75C21.375 7.68038 22.1321 8.4375 23.0625 8.4375Z" fill="white"></path><path d="M26.4375 1.6875H27.5625V2.8125H26.4375V1.6875Z" fill="white"></path></svg><svg viewBox="0 0 36 36" fill="none" id="like"><path d="M33.8203 23.3438C33.8203 22.1836 32.8711 21.2344 31.7109 21.2344C32.8711 21.2344 33.8203 20.2852 33.8203 19.125C33.8203 17.9648 32.8711 17.0156 31.7109 17.0156H23.0626C24.3492 13.1554 24.3281 11.925 24.3281 9.5625C24.3281 7.80743 22.8891 6.39844 21.1641 6.39844H20.5312C20.1305 6.39844 19.6242 6.71491 19.5187 7.2C18.4752 11.2627 16.8437 15.9247 12.7266 16.869V32.1311L16.3757 33.3421C17.4515 33.7006 18.5695 33.8906 19.7086 33.8906H29.6016C30.7666 33.8906 31.7109 32.9461 31.7109 31.7812C31.7109 30.6162 30.7666 29.6719 29.6016 29.6719H31.7109C32.8711 29.6719 33.8203 28.7227 33.8203 27.5625C33.8203 26.4023 32.8711 25.4531 31.7109 25.4531C32.8711 25.4531 33.8203 24.5039 33.8203 23.3438Z" fill="white"></path><path d="M7.45312 14.9062H3.23438C2.65141 14.9062 2.17969 15.378 2.17969 15.9609V34.9453C2.17969 35.5283 2.65141 36 3.23438 36H7.45312C9.19786 36 10.6172 34.5807 10.6172 32.8359V18.0703C10.6172 16.3256 9.19786 14.9062 7.45312 14.9062ZM7.45312 31.7812C6.87066 31.7812 6.39844 31.309 6.39844 30.7266C6.39844 30.144 6.87066 29.6719 7.45312 29.6719C8.03559 29.6719 8.50781 30.144 8.50781 30.7266C8.50781 31.309 8.03559 31.7812 7.45312 31.7812Z" fill="white"></path><path d="M16.689 4.65059L15.1976 3.15919C14.7856 2.74723 14.1181 2.74723 13.7062 3.15919C13.2942 3.57115 13.2942 4.23863 13.7062 4.65059L15.1976 6.14199C15.6095 6.55395 16.277 6.55395 16.689 6.14199C17.1009 5.73003 17.1009 5.06255 16.689 4.65059Z" fill="white"></path><path d="M28.6221 3.15919C28.2101 2.74723 27.5427 2.74723 27.1307 3.15919L25.6393 4.65059C25.2273 5.06255 25.2273 5.73003 25.6393 6.14199C26.0513 6.55395 26.7187 6.55395 27.1307 6.14199L28.6221 4.65059C29.0341 4.23863 29.0341 3.57115 28.6221 3.15919Z" fill="white"></path><path d="M21.1641 0C20.5734 0 20.1094 0.463992 20.1094 1.05469V3.23438C20.1094 3.82507 20.5734 4.28906 21.1641 4.28906C21.7548 4.28906 22.2188 3.82507 22.2188 3.23438V1.05469C22.2188 0.463992 21.7548 0 21.1641 0Z" fill="white"></path></svg><svg viewBox="0 0 75 59" fill="none" id="outline"><path d="M6.4512 31.4138C11.1437 45.0338 21.26 58 37.52 58.25C53.75 58 63.855 45.0325 68.55 31.4138C74.8687 25.23 75.7675 11.2413 74.4637 5.02375C73.9575 2.605 73.1337 1.22875 71.95 0.820004C70.3437 0.263754 66.0462 2.39375 63.27 8.11125C62.0805 7.52783 60.8107 7.12507 59.5025 6.91625C54.6476 6.18445 49.9259 4.7463 45.4875 2.6475C43.0061 1.38626 40.2813 0.676701 37.5 0.567505C34.7199 0.677159 31.9964 1.38671 29.5162 2.6475C25.0773 4.74642 20.3552 6.18457 15.5 6.91625C14.1917 7.12507 12.9219 7.52783 11.7325 8.11125C8.9562 2.39125 4.65995 0.261255 3.05495 0.818755C1.8687 1.22876 1.04495 2.605 0.538703 5.02375C-0.767547 11.2413 0.131203 25.23 6.4512 31.4138ZM71.1775 3.25C71.48 3.6025 72.1162 4.94501 72.3762 8.15251C72.7555 13.2089 72.1436 18.2907 70.575 23.1125C70.9912 17.7638 69.4212 12.65 65.3975 9.45375C67.4112 5.14 70.2337 3.4675 71.1775 3.25ZM15.9012 9.38375C20.9685 8.61073 25.8977 7.11026 30.5362 4.92876C32.698 3.81853 35.0725 3.1839 37.5 3.0675C39.9287 3.18341 42.3045 3.81805 44.4675 4.92876C49.106 7.11026 54.0352 8.61073 59.1025 9.38375C66.5775 10.5738 69.4275 18.4475 67.68 25.5338C64.25 39.6125 54.86 54.715 38.75 55.6963V17C38.75 16.6685 38.6183 16.3505 38.3838 16.1161C38.1494 15.8817 37.8315 15.75 37.5 15.75C37.1684 15.75 36.8505 15.8817 36.6161 16.1161C36.3817 16.3505 36.25 16.6685 36.25 17V55.6938C20.125 54.6938 10.75 39.6025 7.3237 25.5338C5.57495 18.4488 8.4262 10.5725 15.9012 9.38375ZM2.62495 8.15C2.8887 4.89125 3.5412 3.55875 3.80995 3.24375C4.73995 3.45 7.57995 5.11875 9.6037 9.45375C5.5787 12.6513 4.0087 17.7638 4.42495 23.1125C2.85641 18.2898 2.24497 13.2071 2.62495 8.15Z" fill="#323232"></path><path d="M20.3676 15.7337C23.502 15.2242 26.5069 14.108 29.2138 12.4475C31.7313 10.8937 34.2588 9.5 37.5001 9.5C40.7413 9.5 43.2688 10.8938 45.7913 12.45C48.4967 14.1094 51.4999 15.2248 54.6326 15.7337C54.7946 15.7602 54.9602 15.7544 55.12 15.7169C55.2798 15.6793 55.4306 15.6106 55.5639 15.5147C55.6972 15.4188 55.8102 15.2976 55.8966 15.1581C55.9831 15.0185 56.0411 14.8633 56.0676 14.7012C56.094 14.5392 56.0883 14.3736 56.0507 14.2138C56.0131 14.054 55.9444 13.9032 55.8485 13.7699C55.7526 13.6367 55.6315 13.5236 55.4919 13.4372C55.3523 13.3508 55.1971 13.2927 55.0351 13.2663C52.2236 12.8095 49.5283 11.8087 47.1001 10.32C44.3751 8.64 41.3926 7 37.5001 7C33.6076 7 30.6251 8.64 27.9051 10.3175C25.4753 11.8073 22.7783 12.8089 19.9651 13.2663C19.803 13.2927 19.6478 13.3508 19.5082 13.4372C19.3687 13.5236 19.2475 13.6367 19.1516 13.7699C19.0557 13.9032 18.987 14.054 18.9495 14.2138C18.9119 14.3736 18.9061 14.5392 18.9326 14.7012C18.959 14.8633 19.0171 15.0185 19.1035 15.1581C19.1899 15.2976 19.303 15.4188 19.4362 15.5147C19.5695 15.6106 19.7203 15.6793 19.8801 15.7169C20.0399 15.7544 20.2055 15.7602 20.3676 15.7337Z" fill="#323232"></path><path d="M31.25 33.875C31.25 32.7625 30.9201 31.6749 30.302 30.7499C29.6839 29.8249 28.8054 29.1039 27.7776 28.6782C26.7498 28.2524 25.6188 28.141 24.5276 28.3581C23.4365 28.5751 22.4342 29.1109 21.6475 29.8975C20.8609 30.6842 20.3251 31.6865 20.1081 32.7776C19.891 33.8688 20.0024 34.9998 20.4282 36.0276C20.8539 37.0554 21.5749 37.9339 22.4999 38.552C23.4249 39.1701 24.5125 39.5 25.625 39.5C27.1163 39.4983 28.5461 38.9052 29.6007 37.8507C30.6552 36.7961 31.2483 35.3663 31.25 33.875ZM22.5 33.875C22.5 33.2569 22.6833 32.6527 23.0267 32.1388C23.37 31.6249 23.8581 31.2244 24.4291 30.9879C25.0001 30.7514 25.6285 30.6895 26.2347 30.81C26.8409 30.9306 27.3977 31.2283 27.8347 31.6653C28.2718 32.1023 28.5694 32.6592 28.69 33.2653C28.8105 33.8715 28.7486 34.4999 28.5121 35.0709C28.2756 35.6419 27.8751 36.13 27.3612 36.4733C26.8473 36.8167 26.2431 37 25.625 37C24.7962 37 24.0013 36.6708 23.4153 36.0847C22.8292 35.4987 22.5 34.7038 22.5 33.875Z" fill="#323232"></path><path d="M14.6325 20.695L30.8825 25.695C31.0394 25.7432 31.2043 25.7601 31.3678 25.7447C31.5312 25.7292 31.69 25.6817 31.8351 25.6048C31.9802 25.528 32.1087 25.4233 32.2134 25.2968C32.318 25.1703 32.3967 25.0244 32.445 24.8675C32.4932 24.7106 32.5101 24.5457 32.4947 24.3822C32.4792 24.2188 32.4317 24.0599 32.3548 23.9149C32.278 23.7698 32.1733 23.6412 32.0468 23.5366C31.9203 23.4319 31.7744 23.3533 31.6175 23.305L15.3675 18.305C15.0506 18.2075 14.7079 18.2399 14.4149 18.3951C14.1218 18.5503 13.9025 18.8156 13.805 19.1325C13.7075 19.4494 13.7399 19.7921 13.8951 20.0851C14.0503 20.3781 14.3156 20.5975 14.6325 20.695Z" fill="#323232"></path><path d="M31.645 45.8149L24.145 43.3149C23.8301 43.2102 23.4864 43.2348 23.1896 43.3835C22.8929 43.5321 22.6673 43.7925 22.5625 44.1075C22.4577 44.4224 22.4824 44.7661 22.631 45.0628C22.7796 45.3596 23.0401 45.5852 23.355 45.6899L30.855 48.1899C31.011 48.2418 31.1756 48.2625 31.3395 48.2507C31.5034 48.239 31.6634 48.195 31.8104 48.1214C31.9573 48.0479 32.0884 47.946 32.196 47.8218C32.3036 47.6976 32.3856 47.5534 32.4375 47.3975C32.4894 47.2415 32.51 47.0769 32.4983 46.9129C32.4865 46.749 32.4426 46.589 32.369 46.4421C32.2954 46.2951 32.1936 46.1641 32.0694 46.0565C31.9452 45.9489 31.801 45.8668 31.645 45.8149Z" fill="#323232"></path><path d="M42.555 24.8675C42.6033 25.0244 42.682 25.1703 42.7866 25.2969C42.8912 25.4234 43.0198 25.5281 43.1649 25.6049C43.31 25.6818 43.4688 25.7293 43.6322 25.7447C43.7957 25.7602 43.9606 25.7433 44.1175 25.695L60.3675 20.695C60.5245 20.6467 60.6704 20.568 60.7969 20.4634C60.9234 20.3587 61.0281 20.2302 61.1049 20.0851C61.1817 19.94 61.2293 19.7812 61.2447 19.6178C61.2602 19.4543 61.2433 19.2894 61.195 19.1325C61.1468 18.9756 61.0681 18.8297 60.9634 18.7032C60.8588 18.5766 60.7303 18.472 60.5852 18.3951C60.4401 18.3183 60.2813 18.2708 60.1178 18.2553C59.9544 18.2398 59.7895 18.2567 59.6325 18.305L43.3825 23.305C43.2256 23.3532 43.0797 23.4319 42.9532 23.5365C42.8266 23.6412 42.7219 23.7697 42.6451 23.9148C42.5683 24.0599 42.5208 24.2187 42.5053 24.3822C42.4899 24.5457 42.5068 24.7106 42.555 24.8675Z" fill="#323232"></path><path d="M50.855 43.3149L43.355 45.8149C43.1991 45.8668 43.0549 45.9489 42.9306 46.0565C42.8064 46.1641 42.7046 46.2951 42.631 46.4421C42.5574 46.589 42.5135 46.749 42.5017 46.9129C42.49 47.0769 42.5106 47.2415 42.5625 47.3974C42.6144 47.5534 42.6965 47.6976 42.8041 47.8218C42.9117 47.946 43.0427 48.0479 43.1896 48.1214C43.4864 48.2701 43.8301 48.2947 44.145 48.1899L51.645 45.6899C51.801 45.6381 51.9452 45.556 52.0694 45.4484C52.1936 45.3408 52.2954 45.2098 52.369 45.0628C52.4426 44.9159 52.4865 44.7559 52.4983 44.592C52.51 44.428 52.4894 44.2634 52.4375 44.1074C52.3856 43.9515 52.3036 43.8073 52.196 43.6831C52.0884 43.5589 51.9573 43.457 51.8104 43.3835C51.6634 43.3099 51.5034 43.2659 51.3395 43.2542C51.1756 43.2424 51.011 43.2631 50.855 43.3149Z" fill="#323232"></path></svg><svg viewBox="0 0 81 80" fill="none" id="pharmacy"><g clip-path="url(#pharmacy_0)"><path d="M78.5259 20.1466C79.6144 20.1466 80.5 19.2611 80.5 18.1725V13.6361C80.5 12.5477 79.6145 11.662 78.5259 11.662H70.4388C68.7969 7.90204 65.0444 5.26672 60.6862 5.26672H55.0312C54.3841 5.26672 53.8594 5.79141 53.8594 6.4386C53.8594 7.08579 54.3841 7.61047 55.0312 7.61047H60.6862C65.2595 7.61047 68.9802 11.3311 68.9802 15.9044C68.9802 20.4777 65.2595 24.1983 60.6862 24.1983H20.3137C15.7405 24.1983 12.0198 20.4777 12.0198 15.9044C12.0198 11.3311 15.7405 7.61047 20.3137 7.61047H49.5625C50.2097 7.61047 50.7344 7.08579 50.7344 6.4386C50.7344 5.79141 50.2097 5.26672 49.5625 5.26672H20.3137C15.9556 5.26672 12.2033 7.90219 10.5612 11.662H2.47406C1.38547 11.662 0.5 12.5475 0.5 13.6361V18.1725C0.5 19.2609 1.38547 20.1466 2.47406 20.1466H3.54688V22.45H2.47406C1.38547 22.45 0.5 23.3355 0.5 24.4239V28.9603C0.5 30.0488 1.38547 30.9344 2.47406 30.9344H3.54688V68.2183H2.33297C1.32234 68.2183 0.5 69.0406 0.5 70.0513V72.9003C0.5 73.9111 1.32234 74.7333 2.33297 74.7333H78.6669C79.6777 74.7333 80.4998 73.9109 80.4998 72.9003V70.0513C80.4998 69.0406 79.6775 68.2183 78.6669 68.2183H77.4531V30.9344H78.5259C79.6144 30.9344 80.5 30.0489 80.5 28.9603V24.4239C80.5 23.3355 79.6145 22.4498 78.5259 22.4498H77.4531V20.1464H78.5259V20.1466ZM78.1562 14.0058V17.8028H71.1508C71.2623 17.1863 71.3239 16.5525 71.3239 15.9044C71.3239 15.2563 71.2625 14.6223 71.1508 14.0059H78.1562V14.0058ZM2.84375 14.0058H9.84922C9.73766 14.6223 9.67609 15.2561 9.67609 15.9042C9.67609 16.5523 9.7375 17.1863 9.84922 17.8027H2.84375V14.0058ZM5.89062 20.1466H10.5612C10.9228 20.9747 11.3873 21.7472 11.9378 22.45H5.89062V20.1466ZM29.978 72.3895H2.84375V70.562H29.978V72.3895ZM29.978 59.5547H23C22.3528 59.5547 21.8281 60.0794 21.8281 60.7266C21.8281 61.3738 22.3528 61.8984 23 61.8984H29.978V68.2181H10.8681V61.8984H17.5312C18.1784 61.8984 18.7031 61.3738 18.7031 60.7266C18.7031 60.0794 18.1784 59.5547 17.5312 59.5547H10.8681V43.2291H29.978V59.5547ZM29.978 40.8853H10.8681V37.3519H29.978V40.8853ZM48.6783 72.3895H32.3217V43.2291H48.6783V72.3895ZM48.6783 40.8853H32.3217V37.3519H48.6783V40.8853ZM78.1562 70.562V72.3895H51.022V70.562H78.1562ZM51.022 68.2183V61.8984H70.1319V68.2181H51.022V68.2183ZM75.1094 68.2183H72.4756V53.2813C72.4756 52.6341 71.9509 52.1094 71.3037 52.1094C70.6566 52.1094 70.1319 52.6341 70.1319 53.2813V59.5547H51.022V43.2291H70.1319V47.8125C70.1319 48.4597 70.6566 48.9844 71.3037 48.9844C71.9509 48.9844 72.4756 48.4597 72.4756 47.8125V36.9822C72.4756 35.8938 71.5902 35.0081 70.5016 35.0081H51.022H29.978H10.4986C9.41 35.0081 8.52453 35.8936 8.52453 36.9822V68.2184H5.89062V30.9344H75.1094V68.2183ZM51.022 40.8853V37.3519H70.1319V40.8853H51.022ZM78.1562 28.5906H2.84375V24.7938H14.4811C16.1573 25.8973 18.1612 26.5419 20.3137 26.5419H60.6864C62.8389 26.5419 64.8428 25.8973 66.5191 24.7938H78.1562V28.5906ZM75.1094 22.45H69.0622C69.6127 21.7472 70.077 20.9747 70.4388 20.1466H75.1094V22.45Z" fill="#323232"></path><path d="M45.3228 60.6638C45.9699 60.6638 46.4946 60.1391 46.4946 59.4919V54.1489C46.4946 53.5017 45.9699 52.9771 45.3228 52.9771C44.6756 52.9771 44.1509 53.5017 44.1509 54.1489V59.4919C44.1509 60.1391 44.6756 60.6638 45.3228 60.6638Z" fill="#323232"></path><path d="M23.5657 22.6914H26.9516C27.77 22.6914 28.436 22.0255 28.436 21.207V19.0816H30.5614C31.3799 19.0816 32.0458 18.4156 32.0458 17.5972V14.2113C32.0458 13.3928 31.3799 12.7269 30.5614 12.7269H28.436V10.6016C28.436 9.78313 27.77 9.11719 26.9516 9.11719H23.5657C22.7472 9.11719 22.0813 9.78313 22.0813 10.6016V12.727H19.9558C19.1374 12.727 18.4714 13.393 18.4714 14.2114V17.5973C18.4714 18.4158 19.1374 19.0817 19.9558 19.0817H22.0813V21.2072C22.0813 22.0255 22.7472 22.6914 23.5657 22.6914ZM20.8153 16.7378V15.0706H22.9408C23.7592 15.0706 24.4252 14.4047 24.4252 13.5863V11.4609H26.0924V13.5864C26.0924 14.4048 26.7583 15.0708 27.5767 15.0708H29.7022V16.738H27.5766C26.7582 16.738 26.0922 17.4039 26.0922 18.2223V20.3478H24.425V18.2223C24.425 17.4039 23.7591 16.738 22.9407 16.738H20.8153V16.7378Z" fill="#323232"></path><path d="M61.3565 13.3492H36.489C35.8418 13.3492 35.3171 13.8739 35.3171 14.5211C35.3171 15.1683 35.8418 15.693 36.489 15.693H61.3565C62.0037 15.693 62.5284 15.1683 62.5284 14.5211C62.5284 13.8739 62.0039 13.3492 61.3565 13.3492Z" fill="#323232"></path><path d="M61.3565 17.1997H55.9016C55.2544 17.1997 54.7297 17.7244 54.7297 18.3716C54.7297 19.0188 55.2544 19.5435 55.9016 19.5435H61.3565C62.0036 19.5435 62.5283 19.0188 62.5283 18.3716C62.5283 17.7244 62.0038 17.1997 61.3565 17.1997Z" fill="#323232"></path><path d="M16.4375 57.1094H24.5625C25.2097 57.1094 25.7344 56.5847 25.7344 55.9375V46.25C25.7344 45.6028 25.2097 45.0781 24.5625 45.0781H16.4375C15.7903 45.0781 15.2656 45.6028 15.2656 46.25V55.9375C15.2656 56.5847 15.7903 57.1094 16.4375 57.1094ZM17.6094 47.4219H23.3906V54.7656H17.6094V47.4219Z" fill="#323232"></path></g><defs><clipPath id="pharmacy_0"><rect width="80" height="80" fill="white" transform="translate(0.5)"></rect></clipPath></defs></svg><svg viewBox="0 0 25 26" fill="none" id="phone"><path d="M24.4754 22.5816V18.9686C24.49 18.378 24.2871 17.8026 23.9052 17.3518C23.5233 16.901 22.989 16.6064 22.404 16.5238C21.2477 16.3713 20.1125 16.0885 19.0198 15.6808C18.5888 15.5188 18.1203 15.4837 17.6699 15.5798C17.2195 15.6758 16.8061 15.899 16.4787 16.2228L14.9492 17.7522C11.9341 16.0378 9.43768 13.5414 7.72326 10.5263L9.25275 8.99682C9.57655 8.66938 9.7997 8.25597 9.89575 7.8056C9.9918 7.35522 9.95673 6.88675 9.7947 6.4557C9.38697 5.36305 9.10417 4.22778 8.95167 3.07155C8.86987 2.49281 8.58042 1.96356 8.13726 1.58245C7.69411 1.20133 7.12749 0.994364 6.54303 1.00012H2.93006C2.59567 1.00043 2.265 1.07037 1.95912 1.20548C1.65324 1.34059 1.37884 1.53791 1.1534 1.78488C0.927958 2.03185 0.756408 2.32305 0.649674 2.63995C0.542941 2.95685 0.503361 3.2925 0.533457 3.62554C0.928767 7.34809 2.1954 10.9252 4.23073 14.067C6.07977 16.9769 8.54681 19.4439 11.4567 21.293C14.5843 23.3212 18.1441 24.5875 21.85 24.9902C22.184 25.0204 22.5207 24.9805 22.8384 24.873C23.1561 24.7656 23.4479 24.593 23.6951 24.3662C23.9422 24.1395 24.1393 23.8636 24.2737 23.5563C24.408 23.249 24.4768 22.917 24.4754 22.5816Z" stroke="black" stroke-linecap="round" stroke-linejoin="round"></path></svg><svg viewBox="0 0 36 36" fill="none" id="stopwatch"><path d="M25.875 0.84375H20.25C19.784 0.84375 19.4062 1.22151 19.4062 1.6875V3.375C19.4062 3.84099 19.784 4.21875 20.25 4.21875H25.875C26.341 4.21875 26.7188 3.84099 26.7188 3.375V1.6875C26.7188 1.22151 26.341 0.84375 25.875 0.84375Z" fill="white"></path><path d="M9.5625 13.2188H3.9375C3.71372 13.2188 3.49911 13.3076 3.34088 13.4659C3.18264 13.6241 3.09375 13.8387 3.09375 14.0625C3.09375 14.2863 3.18264 14.5009 3.34088 14.6591C3.49911 14.8174 3.71372 14.9062 3.9375 14.9062H9.5625C9.78628 14.9062 10.0009 14.8174 10.1591 14.6591C10.3174 14.5009 10.4062 14.2863 10.4062 14.0625C10.4062 13.8387 10.3174 13.6241 10.1591 13.4659C10.0009 13.3076 9.78628 13.2188 9.5625 13.2188Z" fill="white"></path><path d="M9.28125 20.8125C9.28125 20.5887 9.19235 20.3741 9.03412 20.2159C8.87589 20.0576 8.66128 19.9688 8.4375 19.9688H2.8125C2.58872 19.9688 2.37411 20.0576 2.21588 20.2159C2.05764 20.3741 1.96875 20.5887 1.96875 20.8125C1.96875 21.0363 2.05764 21.2509 2.21588 21.4091C2.37411 21.5674 2.58872 21.6562 2.8125 21.6562H8.4375C8.66128 21.6562 8.87589 21.5674 9.03412 21.4091C9.19235 21.2509 9.28125 21.0363 9.28125 20.8125Z" fill="white"></path><path d="M9 23.3438H5.0625C4.83872 23.3438 4.62411 23.4326 4.46588 23.5909C4.30764 23.7491 4.21875 23.9637 4.21875 24.1875C4.21875 24.4113 4.30764 24.6259 4.46588 24.7841C4.62411 24.9424 4.83872 25.0312 5.0625 25.0312H9C9.22378 25.0312 9.43839 24.9424 9.59662 24.7841C9.75485 24.6259 9.84375 24.4113 9.84375 24.1875C9.84375 23.9637 9.75485 23.7491 9.59662 23.5909C9.43839 23.4326 9.22378 23.3438 9 23.3438Z" fill="white"></path><path d="M9.28125 17.4375C9.28125 17.2137 9.19236 16.9991 9.03412 16.8409C8.87589 16.6826 8.66128 16.5938 8.4375 16.5938H1.125C0.901224 16.5937 0.686612 16.6826 0.528379 16.8409C0.370145 16.9991 0.28125 17.2137 0.28125 17.4375C0.28125 17.6613 0.370145 17.8759 0.528379 18.0341C0.686612 18.1924 0.901224 18.2812 1.125 18.2812H8.4375C8.66128 18.2812 8.87589 18.1924 9.03412 18.0341C9.19236 17.8759 9.28125 17.6613 9.28125 17.4375Z" fill="white"></path><path d="M23.0625 19.125V9.5625C17.7897 9.5625 13.5 13.8522 13.5 19.125C13.5 24.3978 17.7897 28.6875 23.0625 28.6875C28.3353 28.6875 32.625 24.3978 32.625 19.125H23.0625Z" fill="white"></path><path d="M32.3169 10.5014L33.2216 9.5966C33.301 9.51849 33.3641 9.42543 33.4074 9.32279C33.4507 9.22015 33.4732 9.10996 33.4736 8.99858C33.4741 8.8872 33.4525 8.77683 33.41 8.67384C33.3676 8.57085 33.3052 8.47728 33.2265 8.39852C33.1477 8.31976 33.0542 8.25738 32.9512 8.21496C32.8482 8.17255 32.7378 8.15094 32.6264 8.1514C32.515 8.15185 32.4049 8.17435 32.3022 8.2176C32.1996 8.26086 32.1065 8.324 32.0284 8.4034L31.0868 9.34495C29.2734 7.85112 27.0786 6.89387 24.75 6.58125V5.0625H21.375V6.58125C19.0465 6.89375 16.8517 7.85084 15.0382 9.34453L14.0966 8.40298C14.0185 8.32358 13.9254 8.26043 13.8228 8.21718C13.7201 8.17393 13.61 8.15143 13.4986 8.15098C13.3872 8.15052 13.2768 8.17213 13.1738 8.21454C13.0709 8.25695 12.9773 8.31934 12.8985 8.3981C12.8198 8.47686 12.7574 8.57043 12.715 8.67342C12.6726 8.77641 12.6509 8.88678 12.6514 8.99816C12.6519 9.10954 12.6744 9.21972 12.7176 9.32236C12.7609 9.425 12.824 9.51807 12.9034 9.59618L13.8081 10.501C11.6202 12.8393 10.4039 15.9226 10.4063 19.125C10.4063 26.1037 16.0838 31.7812 23.0625 31.7812C30.0412 31.7812 35.7188 26.1037 35.7188 19.125C35.721 15.9228 34.5048 12.8397 32.3169 10.5014ZM23.0625 29.5312C21.0043 29.5312 18.9924 28.9209 17.2811 27.7775C15.5698 26.634 14.236 25.0088 13.4484 23.1073C12.6608 21.2058 12.4547 19.1135 12.8562 17.0948C13.2577 15.0762 14.2488 13.222 15.7042 11.7667C17.1595 10.3113 19.0137 9.32023 21.0323 8.9187C23.051 8.51718 25.1433 8.72325 27.0448 9.51088C28.9463 10.2985 30.5715 11.6323 31.715 13.3436C32.8584 15.0549 33.4688 17.0668 33.4688 19.125C33.4688 20.4916 33.1996 21.8448 32.6766 23.1073C32.1537 24.3698 31.3871 25.517 30.4208 26.4833C29.4545 27.4496 28.3073 28.2162 27.0448 28.7391C25.7823 29.2621 24.4291 29.5312 23.0625 29.5312Z" fill="white"></path></svg></svg>